<mxfile host="65bd71144e">
    <diagram id="9GEs43wBuwgUXKJ7rJdg" name="Page-1">
        <mxGraphModel dx="566" dy="427" grid="1" gridSize="10" guides="1" tooltips="1" connect="1" arrows="1" fold="1" page="1" pageScale="1" pageWidth="850" pageHeight="1100" math="0" shadow="0">
            <root>
                <mxCell id="0"/>
                <mxCell id="1" parent="0"/>
                <mxCell id="12" value="" style="edgeStyle=none;html=1;fontColor=#3399FF;labelBackgroundColor=#009900;fillColor=#6a00ff;strokeColor=#3700CC;" edge="1" parent="1" source="2">
                    <mxGeometry relative="1" as="geometry">
                        <mxPoint x="260" y="170" as="targetPoint"/>
                    </mxGeometry>
                </mxCell>
                <mxCell id="2" value="Main" style="swimlane;html=1;fontColor=#ffffff;labelBackgroundColor=#009900;fillColor=#6a00ff;strokeColor=#3700CC;" vertex="1" parent="1">
                    <mxGeometry x="40" y="120" width="120" height="160" as="geometry"/>
                </mxCell>
                <mxCell id="3" value="&lt;div style=&quot;text-align: left;&quot;&gt;&lt;span style=&quot;&quot;&gt;Main() {&lt;/span&gt;&lt;/div&gt;&lt;div style=&quot;text-align: left;&quot;&gt;&lt;span style=&quot;&quot;&gt;--------&lt;/span&gt;&lt;/div&gt;&lt;div style=&quot;text-align: left;&quot;&gt;&lt;span style=&quot;&quot;&gt;-------&lt;/span&gt;&lt;/div&gt;&lt;div style=&quot;text-align: left;&quot;&gt;&lt;span style=&quot;&quot;&gt;}&lt;/span&gt;&lt;/div&gt;" style="text;html=1;align=center;verticalAlign=middle;resizable=0;points=[];autosize=1;strokeColor=#3700CC;fillColor=none;fontColor=#ffffff;labelBackgroundColor=#009900;" vertex="1" parent="2">
                    <mxGeometry x="10" y="45" width="60" height="70" as="geometry"/>
                </mxCell>
                <mxCell id="14" value="" style="edgeStyle=none;html=1;entryX=0;entryY=0.5;entryDx=0;entryDy=0;fontColor=#3399FF;labelBackgroundColor=#009900;fillColor=#6a00ff;strokeColor=#3700CC;" edge="1" parent="1" source="4" target="6">
                    <mxGeometry relative="1" as="geometry">
                        <mxPoint x="530" y="127.38095238095241" as="targetPoint"/>
                    </mxGeometry>
                </mxCell>
                <mxCell id="4" value="ShapeFactory" style="swimlane;html=1;fontColor=#ffffff;labelBackgroundColor=#009900;fillColor=#6a00ff;strokeColor=#3700CC;" vertex="1" parent="1">
                    <mxGeometry x="260" y="80" width="200" height="200" as="geometry"/>
                </mxCell>
                <mxCell id="5" value="Shape getShape(){&lt;br&gt;&lt;span style=&quot;white-space: pre;&quot;&gt;&#9;&lt;/span&gt;---------------&lt;br&gt;&lt;span style=&quot;white-space: pre;&quot;&gt;&#9;&lt;/span&gt;---------------&lt;br&gt;}" style="text;html=1;align=left;verticalAlign=middle;resizable=0;points=[];autosize=1;strokeColor=#3700CC;fillColor=none;fontColor=#ffffff;labelBackgroundColor=#009900;" vertex="1" parent="4">
                    <mxGeometry x="10" y="40" width="120" height="70" as="geometry"/>
                </mxCell>
                <mxCell id="6" value="ShapeInterface" style="swimlane;html=1;fontColor=#ffffff;labelBackgroundColor=#009900;fillColor=#6a00ff;strokeColor=#3700CC;" vertex="1" parent="1">
                    <mxGeometry x="600" y="50" width="160" height="110" as="geometry"/>
                </mxCell>
                <mxCell id="7" value="void draw();" style="text;html=1;align=left;verticalAlign=middle;resizable=0;points=[];autosize=1;strokeColor=#3700CC;fillColor=none;fontColor=#ffffff;labelBackgroundColor=#009900;" vertex="1" parent="6">
                    <mxGeometry x="35" y="50" width="90" height="30" as="geometry"/>
                </mxCell>
                <mxCell id="8" value="Circle" style="swimlane;html=1;fontColor=#ffffff;labelBackgroundColor=#009900;fillColor=#6a00ff;strokeColor=#3700CC;" vertex="1" parent="1">
                    <mxGeometry x="520" y="241" width="120" height="120" as="geometry"/>
                </mxCell>
                <mxCell id="9" value="draw(){&lt;br&gt;&lt;span style=&quot;white-space: pre;&quot;&gt;&#9;&lt;/span&gt;-----------&lt;br&gt;&lt;span style=&quot;white-space: pre;&quot;&gt;&#9;&lt;/span&gt;-----------&lt;br&gt;}" style="text;html=1;align=left;verticalAlign=middle;resizable=0;points=[];autosize=1;strokeColor=#3700CC;fillColor=none;fontColor=#ffffff;labelBackgroundColor=#009900;" vertex="1" parent="1">
                    <mxGeometry x="525" y="276" width="90" height="70" as="geometry"/>
                </mxCell>
                <mxCell id="10" value="Square" style="swimlane;html=1;fontColor=#ffffff;labelBackgroundColor=#009900;fillColor=#6a00ff;strokeColor=#3700CC;" vertex="1" parent="1">
                    <mxGeometry x="720" y="238" width="120" height="120" as="geometry"/>
                </mxCell>
                <mxCell id="11" value="draw(){&lt;br&gt;&lt;span style=&quot;white-space: pre;&quot;&gt;&#9;&lt;/span&gt;-----------&lt;br&gt;&lt;span style=&quot;white-space: pre;&quot;&gt;&#9;&lt;/span&gt;-----------&lt;br&gt;}" style="text;html=1;align=left;verticalAlign=middle;resizable=0;points=[];autosize=1;strokeColor=#3700CC;fillColor=none;fontColor=#ffffff;labelBackgroundColor=#009900;" vertex="1" parent="1">
                    <mxGeometry x="725" y="273" width="90" height="70" as="geometry"/>
                </mxCell>
                <mxCell id="15" value="has - a" style="text;html=1;align=center;verticalAlign=middle;resizable=0;points=[];autosize=1;strokeColor=#3700CC;fillColor=none;fontColor=#ffffff;labelBackgroundColor=#009900;" vertex="1" parent="1">
                    <mxGeometry x="490" y="90" width="60" height="30" as="geometry"/>
                </mxCell>
                <mxCell id="16" value="has - a" style="text;html=1;align=center;verticalAlign=middle;resizable=0;points=[];autosize=1;strokeColor=#3700CC;fillColor=none;fontColor=#ffffff;labelBackgroundColor=#009900;" vertex="1" parent="1">
                    <mxGeometry x="170" y="140" width="60" height="30" as="geometry"/>
                </mxCell>
                <mxCell id="17" value="" style="shape=flexArrow;endArrow=classic;html=1;fontColor=#3399FF;labelBackgroundColor=#009900;fillColor=#6a00ff;strokeColor=#3700CC;" edge="1" parent="1">
                    <mxGeometry width="50" height="50" relative="1" as="geometry">
                        <mxPoint x="566" y="235" as="sourcePoint"/>
                        <mxPoint x="631" y="167" as="targetPoint"/>
                    </mxGeometry>
                </mxCell>
                <mxCell id="18" value="" style="shape=flexArrow;endArrow=classic;html=1;endWidth=18;endSize=4.51;exitX=0.5;exitY=0;exitDx=0;exitDy=0;fontColor=#3399FF;labelBackgroundColor=#009900;fillColor=#6a00ff;strokeColor=#3700CC;" edge="1" parent="1">
                    <mxGeometry width="50" height="50" relative="1" as="geometry">
                        <mxPoint x="780" y="233" as="sourcePoint"/>
                        <mxPoint x="720" y="165" as="targetPoint"/>
                    </mxGeometry>
                </mxCell>
                <mxCell id="19" value="Is - a" style="text;html=1;align=center;verticalAlign=middle;resizable=0;points=[];autosize=1;strokeColor=#3700CC;fillColor=none;fontColor=#ffffff;labelBackgroundColor=#009900;" vertex="1" parent="1">
                    <mxGeometry x="525" y="185" width="50" height="30" as="geometry"/>
                </mxCell>
                <mxCell id="20" value="Is - a" style="text;html=1;align=center;verticalAlign=middle;resizable=0;points=[];autosize=1;strokeColor=#3700CC;fillColor=none;fontColor=#ffffff;labelBackgroundColor=#009900;" vertex="1" parent="1">
                    <mxGeometry x="690" y="200" width="50" height="30" as="geometry"/>
                </mxCell>
            </root>
        </mxGraphModel>
    </diagram>
</mxfile>